<?xml version="1.0" encoding="iso-8859-1"?>
<!-- Generator: Adobe Illustrator 21.0.0, SVG Export Plug-In . SVG Version: 6.00 Build 0)  -->
<svg xmlns="http://www.w3.org/2000/svg" xmlns:xlink="http://www.w3.org/1999/xlink" version="1.1" id="Capa_1" x="0px" y="0px" viewBox="0 0 511 511" style="enable-background:new 0 0 511 511;" xml:space="preserve" width="512" height="512">
<g>
	<g>
		<path d="M476.273,126.815C454.23,89.076,422.673,57.4,385.015,35.213c-3.569-2.101-8.166-0.914-10.27,2.654    c-2.103,3.569-0.914,8.167,2.655,10.27C450.555,91.237,496,170.694,496,255.5C496,388.112,388.112,496,255.5,496    S15,388.112,15,255.5S122.888,15,255.5,15c32.278,0,63.6,6.284,93.095,18.679c3.819,1.607,8.215-0.189,9.819-4.009    c1.604-3.818-0.189-8.215-4.009-9.819C323.062,6.679,289.784,0,255.5,0C187.253,0,123.092,26.576,74.834,74.834S0,187.253,0,255.5    s26.576,132.408,74.834,180.666S187.253,511,255.5,511s132.408-26.576,180.666-74.834S511,323.747,511,255.5    C511,210.208,498.992,165.709,476.273,126.815z"/>
		<path d="M383,166.091c13.759-3.374,24-15.806,24-30.591c0-17.369-14.131-31.5-31.5-31.5S344,118.131,344,135.5    c0,14.785,10.241,27.216,24,30.591V248H263v-81.909c13.759-3.374,24-15.806,24-30.591c0-17.369-14.131-31.5-31.5-31.5    S224,118.131,224,135.5c0,14.785,10.241,27.216,24,30.591V248H135.5c-4.143,0-7.5,3.357-7.5,7.5v89.409    c-13.759,3.374-24,15.806-24,30.591c0,17.369,14.131,31.5,31.5,31.5s31.5-14.131,31.5-31.5c0-14.785-10.241-27.216-24-30.591V263    h105v81.909c-13.759,3.374-24,15.806-24,30.591c0,17.369,14.131,31.5,31.5,31.5s31.5-14.131,31.5-31.5    c0-14.785-10.241-27.216-24-30.591V263h105v81.909c-13.759,3.374-24,15.806-24,30.591c0,17.369,14.131,31.5,31.5,31.5    s31.5-14.131,31.5-31.5c0-14.785-10.241-27.216-24-30.591V166.091z M239,135.5c0-9.098,7.402-16.5,16.5-16.5s16.5,7.402,16.5,16.5    s-7.402,16.5-16.5,16.5S239,144.598,239,135.5z M152,375.5c0,9.098-7.402,16.5-16.5,16.5s-16.5-7.402-16.5-16.5    s7.402-16.5,16.5-16.5S152,366.402,152,375.5z M272,375.5c0,9.098-7.402,16.5-16.5,16.5s-16.5-7.402-16.5-16.5    s7.402-16.5,16.5-16.5S272,366.402,272,375.5z M359,135.5c0-9.098,7.402-16.5,16.5-16.5s16.5,7.402,16.5,16.5    s-7.402,16.5-16.5,16.5S359,144.598,359,135.5z M392,375.5c0,9.098-7.402,16.5-16.5,16.5s-16.5-7.402-16.5-16.5    s7.402-16.5,16.5-16.5S392,366.402,392,375.5z"/>
		<path d="M175,179.5c0-10.752-8.748-19.5-19.5-19.5h-20c-4.143,0-7.5,3.357-7.5,7.5v48c0,4.143,3.357,7.5,7.5,7.5    s7.5-3.357,7.5-7.5V175h12.5c2.481,0,4.5,2.019,4.5,4.5s-2.019,4.5-4.5,4.5h-4c-2.766,0-5.308,1.522-6.612,3.961    c-1.306,2.438-1.162,5.397,0.372,7.699l16,24c2.446,3.669,7.69,4.417,11.07,1.578c2.887-2.425,3.5-6.764,1.41-9.899l-9.58-14.37    C170.579,193.774,175,187.144,175,179.5z"/>
	</g>
</g>















</svg>
